#!OML:ASF Y:\EmotionMaleHayes\Project 1\Capture day 1\Session 1\Male1.ASF
:FULLY-SPECIFIED
:DEGREES
214
root -29.7446 17.0446 1.28949 52.0427 85.8311 52.5401
lowerback 4.68201 1.76947 -5.4588
upperback 0.824233 2.09412 -0.695711
thorax -1.94364 1.08738 2.20724
lowerneck -21.4918 2.91312 4.49362
upperneck 22.2042 3.21953 -1.98131
head 10.8257 1.65252 -0.953323
rclavicle 2.18694e-014 -5.31749e-015
rhumerus -36.5547 3.50668 -88.4971
rradius 31.6642
rwrist 2.50676
rhand -11.0766 -28.8531
rfingers 7.12502
rthumb 14.9467 -58.2938
lclavicle 2.18694e-014 -5.31749e-015
lhumerus -31.456 -11.8931 93.0319
lradius 25.1157
lwrist -12.5201
lhand -15.4612 -26.7221
lfingers 7.12502
lthumb 10.7199 2.98441
rfemur 7.7936 -4.15674 9.1344
rtibia 3.90525
rfoot -13.6073 7.20977
rtoes 7.51239
lfemur 12.1357 1.05128 -16.8702
ltibia 0.429605
lfoot -15.1207 15.8733
ltoes -10.3363
215
root -29.7421 17.0437 1.28844 52.1163 85.8856 52.6644
lowerback 4.76948 1.75913 -5.39506
upperback 0.808715 2.07698 -0.698289
thorax -2.00496 1.08008 2.16725
lowerneck -21.4843 2.91848 4.49411
upperneck 22.2647 3.21721 -1.93243
head 10.8457 1.65877 -0.93598
rclavicle -2.27049e-015 9.88954e-015
rhumerus -36.6931 3.55272 -88.5437
rradius 31.7781
rwrist 2.46388
rhand -11.0762 -29.2321
rfingers 7.12502
rthumb 14.9471 -58.6728
lclavicle -2.27049e-015 9.88954e-015
lhumerus -31.4959 -12.0501 93.0672
lradius 25.0902
lwrist -12.3592
lhand -15.5508 -26.6148
lfingers 7.12502
lthumb 10.6335 3.09613
rfemur 7.88629 -4.20803 9.15583
rtibia 3.88822
rfoot -13.6298 7.18664
rtoes 6.98639
lfemur 12.1519 0.996325 -16.8364
ltibia 0.500122
lfoot -15.1717 15.912
ltoes -10.6875
216
root -29.7658 17.0515 1.3024 42.0442 86.3931 42.5095
lowerback 5.04882 1.80669 -4.72706
upperback 0.702242 2.15521 -0.441499
thorax -2.26316 1.12014 2.04255
lowerneck -21.5076 2.91494 4.51087
upperneck 22.3103 3.20445 -1.92269
head 10.8667 1.65603 -0.9369
rclavicle 9.96098e-015 -2.01269e-014
rhumerus -36.7684 3.57991 -88.5644
rradius 31.8517
rwrist 2.3995
rhand -11.0742 -29.4596
rfingers 7.12502
rthumb 14.949 -58.9001
lclavicle 9.96098e-015 -2.01269e-014
lhumerus -31.5019 -12.049 93.0437
lradius 25.0652
lwrist -12.3667
lhand -16.057 -26.5572
lfingers 7.12502
lthumb 10.1452 3.17822
rfemur 7.57565 -2.99205 10.6436
rtibia 3.91153
rfoot -13.825 5.91956
rtoes 6.65812
lfemur 11.8781 0.955085 -15.6189
ltibia 0.761243
lfoot -15.0834 16.0321
ltoes -11.323
217
root -29.7632 17.0507 1.30028 43.8606 86.1722 44.3308
lowerback 5.0367 1.81839 -4.93278
upperback 0.702323 2.1596 -0.519606
thorax -2.26111 1.12419 2.07699
lowerneck -21.4745 2.90994 4.49484
upperneck 22.3098 3.19783 -1.89571
head 10.8593 1.6555 -0.925824
rclavicle -1.30763e-015 1.14301e-015
rhumerus -36.7772 3.65505 -88.6328
rradius 31.8879
rwrist 2.32494
rhand -11.0624 -29.5679
rfingers 7.12502
rthumb 14.9603 -59.0076
lclavicle -1.30763e-015 1.14301e-015
lhumerus -31.5872 -12.0413 93.0053
lradius 25.1429
lwrist -12.4177
lhand -17.4073 -26.3873
lfingers 7.12502
lthumb 8.84233 3.40743
rfemur 7.53698 -3.09969 10.2924
rtibia 3.99997
rfoot -13.8698 6.09162
rtoes 6.63246
lfemur 11.9087 1.005 -15.94
ltibia 0.761138
lfoot -15.1071 16.1019
ltoes -11.4701
218
root -29.7624 17.0498 1.29951 43.8807 86.1448 44.3239
lowerback 5.0336 1.81855 -4.91398
upperback 0.683435 2.15968 -0.557192
thorax -2.27675 1.12462 2.02745
lowerneck -21.404 2.90708 4.54754
upperneck 22.2812 3.17935 -1.8951
head 10.8359 1.65228 -0.937901
rclavicle 2.06084e-014 -2.22639e-014
rhumerus -36.7988 3.6016 -88.6492
rradius 31.8369
rwrist 2.29238
rhand -11.0769 -29.3221
rfingers 7.12502
rthumb 14.9464 -58.7628
lclavicle 2.06084e-014 -2.22639e-014
lhumerus -31.6612 -12.3055 93.0168
lradius 25.189
lwrist -12.2401
lhand -15.9602 -26.1432
lfingers 7.12502
lthumb 10.2385 3.5876
rfemur 7.50193 -2.95273 10.3299
rtibia 4.00969
rfoot -13.9462 5.95537
rtoes 6.81322
lfemur 11.8899 0.988921 -15.982
ltibia 0.750377
lfoot -15.2566 16.1436
ltoes -11.2969
219
root -29.7603 17.0494 1.30096 42.1764 86.3524 42.6777
lowerback 5.11035 1.7912 -4.7079
upperback 0.693577 2.13117 -0.491911
thorax -2.3022 1.10892 1.97963
lowerneck -21.3268 2.89666 4.60624
upperneck 22.2372 3.17005 -1.9766
head 10.8073 1.64319 -0.979345
rclavicle 2.24099e-014 -2.41523e-014
rhumerus -36.8487 3.62592 -88.6566
rradius 31.8261
rwrist 2.33646
rhand -11.1482 -29.2378
rfingers 7.12502
rthumb 14.8778 -58.6836
lclavicle 2.24099e-014 -2.41523e-014
lhumerus -31.587 -12.4257 93.0155
lradius 25.0837
lwrist -12.1374
lhand -15.7226 -25.9261
lfingers 7.12502
lthumb 10.4678 3.79324
rfemur 7.63273 -2.72816 10.6967
rtibia 3.90549
rfoot -13.9745 5.68573
rtoes 7.25506
lfemur 12.05 0.554294 -15.8406
ltibia 0.546679
lfoot -15.2828 16.4319
ltoes -11.2132
220
root -29.7558 17.0479 1.30281 39.713 86.5662 40.283
lowerback 5.14121 1.74876 -4.48045
upperback 0.734949 2.08824 -0.400317
thorax -2.26909 1.08438 1.95007
lowerneck -21.2458 2.90374 4.67849
upperneck 22.156 3.20166 -2.14213
head 10.7676 1.64272 -1.04708
rclavicle 2.08196e-014 -5.86415e-015
rhumerus -36.8484 3.74438 -88.6746
rradius 31.8375
rwrist 2.32623
rhand -11.2654 -29.3136
rfingers 7.12502
rthumb 14.7648 -58.7677
lclavicle 2.08196e-014 -5.86415e-015
lhumerus -31.4152 -12.2286 92.9234
lradius 24.8938
lwrist -12.3152
lhand -16.5908 -25.8683
lfingers 7.12502
lthumb 9.63017 3.89155
rfemur 7.78311 -2.72015 11.0096
rtibia 3.82527
rfoot -13.9469 5.75769
rtoes 7.40915
lfemur 12.2613 0.153207 -15.645
ltibia 0.261789
lfoot -15.1354 16.7665
ltoes -11.2473
221
root -29.7525 17.047 1.30422 37.0559 86.6616 37.6258
lowerback 5.12847 1.74961 -4.29132
upperback 0.753627 2.10153 -0.360565
thorax -2.23833 1.08855 1.88506
lowerneck -21.2175 2.9044 4.73824
upperneck 22.1001 3.20329 -2.22272
head 10.7443 1.63796 -1.08614
rclavicle -5.50385e-015 -1.2424e-014
rhumerus -36.7436 3.48067 -88.491
rradius 31.6497
rwrist 2.17533
rhand -11.0934 -28.4951
rfingers 7.12502
rthumb 14.9305 -57.937
lclavicle -5.50385e-015 -1.2424e-014
lhumerus -31.303 -12.2149 92.8454
lradius 24.7703
lwrist -12.3586
lhand -16.736 -26.1204
lfingers 7.12502
lthumb 9.49005 3.64592
rfemur 7.77681 -2.75593 11.2261
rtibia 3.88153
rfoot -13.9335 5.91606
rtoes 7.43624
lfemur 12.2305 0.53389 -15.2527
ltibia 0.350624
lfoot -14.9539 16.4406
ltoes -11.4245
222
root -29.7505 17.045 1.30417 35.3186 86.7114 35.8057
lowerback 5.10122 1.75427 -4.19174
upperback 0.711912 2.11341 -0.318325
thorax -2.26496 1.09443 1.87204
lowerneck -21.2594 2.87349 4.76663
upperneck 22.165 3.17435 -2.31208
head 10.777 1.61636 -1.12727
rclavicle 5.62188e-016 -3.18055e-015
rhumerus -36.7168 3.40622 -88.4167
rradius 31.5239
rwrist 2.19411
rhand -11.1303 -28.2729
rfingers 7.12502
rthumb 14.8949 -57.7175
lclavicle 5.62188e-016 -3.18055e-015
lhumerus -31.2696 -12.2296 92.8188
lradius 24.7145
lwrist -12.3136
lhand -15.6011 -26.397
lfingers 7.12502
lthumb 10.5849 3.31643
rfemur 7.63596 -2.76206 11.3781
rtibia 3.98745
rfoot -14.0001 5.79692
rtoes 7.29318
lfemur 12.0566 0.92362 -14.955
ltibia 0.562421
lfoot -14.8748 16.0897
ltoes -11.9635
223
root -29.7486 17.0434 1.30461 35.555 86.68 35.9612
lowerback 5.10056 1.73772 -4.31032
upperback 0.640804 2.08314 -0.261583
thorax -2.34242 1.0826 1.99776
lowerneck -21.2697 2.86622 4.83925
upperneck 22.2621 3.20078 -2.52492
head 10.8208 1.60914 -1.21214
rclavicle -1.07157e-014 5.91384e-015
rhumerus -36.8366 3.60002 -88.4095
rradius 31.5689
rwrist 2.15552
rhand -11.239 -28.3287
rfingers 7.12502
rthumb 14.7903 -57.781
lclavicle -1.07157e-014 5.91384e-015
lhumerus -31.3131 -12.1226 92.8114
lradius 24.6828
lwrist -12.4017
lhand -14.7566 -26.4935
lfingers 7.12502
lthumb 11.3995 3.17663
rfemur 7.5206 -2.70177 11.3667
rtibia 4.00033
rfoot -13.9752 5.68291
rtoes 7.49778
lfemur 11.9175 1.03732 -14.9406
ltibia 0.67285
lfoot -14.8649 16.0369
ltoes -12.7003
